<?xml version="1.0" encoding="utf-8"?>
<!DOCTYPE svg PUBLIC "-//W3C//DTD SVG 1.1//EN" "http://www.w3.org/Graphics/SVG/1.1/DTD/svg11.dtd">
<svg xmlns="http://www.w3.org/2000/svg" xmlns:xlink="http://www.w3.org/1999/xlink" version="1.1" baseProfile="full" width="1024" height="1024" viewBox="0 0 1024.00 1024.00" enable-background="new 0 0 1024.00 1024.00" xml:space="preserve">
	<path fill="#FFFFFF" fill-opacity="1" fill-rule="evenodd" stroke-linejoin="round" d="M 95.9999,606.545L 133.818,606.546L 133.818,417.455L 95.9998,417.455L 95.9998,266.182L 133.818,266.182L 133.818,152.727L 398.545,152.727L 398.545,266.182L 436.363,266.182L 436.363,417.455L 474.182,417.455L 474.182,266.182L 534.454,266.182L 534.454,152.727L 761.364,152.727L 761.364,304L 761.364,379.637L 928,379.637L 928,530.91L 803.431,530.91L 920.909,729.154L 790.77,806.273L 761.364,756.649L 761.364,871.273L 610.091,871.273L 610.091,795.637L 512,795.637L 512,568.728L 398.545,568.728L 398.545,606.546L 474.182,606.545L 474.182,871.273L 95.9999,871.273L 95.9999,606.545 Z "/>
	<path fill="#8E0000" fill-opacity="1" fill-rule="evenodd" stroke-linejoin="round" d="M 171.636,417.455L 360.727,417.455L 360.727,493.091L 171.636,493.091L 171.636,417.455 Z M 171.636,190.545L 360.727,190.545L 360.727,266.182L 171.636,266.182L 171.636,190.545 Z M 133.818,304L 398.545,304L 398.545,379.636L 133.818,379.636L 133.818,304 Z M 171.636,530.909L 360.727,530.909L 360.727,606.545L 171.636,606.545L 171.636,530.909 Z M 572.477,190.546L 723.749,190.546L 723.749,266.182L 572.477,266.182L 572.477,190.546 Z M 398.545,757.818L 398.545,795.637L 398.545,833.455L 133.818,833.455L 133.818,795.637L 133.818,757.818L 133.818,720L 133.818,644.364L 398.545,644.364L 398.545,720L 398.545,757.818 Z M 302.992,720L 229.371,720L 229.371,757.818L 302.992,757.818L 302.992,720 Z M 867.523,723.542L 800.099,757.819L 724.931,609.958L 724.931,833.455L 649.295,833.455L 649.295,379.637L 512,379.636L 512,304L 723.749,304L 723.749,379.636L 724.931,379.637L 724.931,417.454L 890.182,417.454L 890.182,493.091L 750.369,493.091L 867.523,723.542 Z M 436.364,455.273L 610.295,455.273L 610.295,530.909L 610.295,757.818L 534.658,757.818L 534.658,530.909L 436.364,530.909L 436.364,455.273 Z "/>
</svg>
